# xmcd CD database file
#
# Track frame offsets:
#	150
#	12689
#	28314
#
# Disc length: 602 seconds
#
# Revision: 0
# Processed by: cddbd v1.5.2PL0 Copyright (c) Steve Scherf et al.
# Submitted via: CDex 1.51
#
DISCID=23025803
DTITLE=Varius Artists - Country Night Südbrookmerland
DYEAR=2000
DGENRE=Country
TTITLE0=Weymouth - Joe Hodgkins
TTITLE1=Maschen-Draht-Zaun - Truck Stop
TTITLE2=Two Hearts in the Wind - Joe Hodgkins
EXTD=YEAR: 2000
EXTT0=
EXTT1=
EXTT2=
PLAYORDER=
